<svg xmlns="http://www.w3.org/2000/svg" xmlns:xlink="http://www.w3.org/1999/xlink" width="128" height="128"><defs><linearGradient id="b" x1="-320.59" y1="-1114.77" x2="-192.57" y2="-1114.77" gradientTransform="rotate(84.06 -750.11 -347.6)" gradientUnits="userSpaceOnUse"><stop offset="0" stop-color="#01e8f8"/><stop offset="1" stop-color="#01e8f8" stop-opacity=".2"/></linearGradient><linearGradient id="c" x1="-223" y1="-660.84" x2="-223" y2="-745.73" gradientTransform="matrix(1 0 0 -1 287 -616.05)" gradientUnits="userSpaceOnUse"><stop offset="0" stop-color="#01e8f8"/><stop offset="1" stop-color="#01e8f8" stop-opacity="0"/></linearGradient><linearGradient id="a" x1="-182.81" y1="-666.48" x2="-180.38" y2="-697.83" gradientTransform="matrix(1 0 0 -1 287 -616.05)" gradientUnits="userSpaceOnUse"><stop offset="0" stop-color="#01e8f7"/><stop offset="1" stop-color="#00c2ff"/></linearGradient><linearGradient id="d" x1="-239.12" y1="-646.15" x2="-206.15" y2="-698.48" gradientTransform="matrix(1 0 0 -1 287 -616.05)" gradientUnits="userSpaceOnUse"><stop offset="0" stop-color="#01e8f7"/><stop offset="1" stop-color="#00b3ec"/></linearGradient><linearGradient id="e" x1="-225.7" y1="-670.54" x2="-222.76" y2="-754.97" xlink:href="#a"/></defs><circle cx="64" cy="64" r="64" fill-opacity=".15" fill="url(#b)"/><circle cx="64" cy="64" r="64" fill-opacity=".05" fill="url(#c)"/><path d="M114.19 59.87c.34-9.34-5.9-15.24-13.14-19.36l-4.88 27.7a6.32 6.32 0 015.56 1.79c.67.76 2.44 2.78.33 6.23 4.13-.78 11.37-5.32 12.13-16.36z" fill="url(#a)"/><path d="M51.87 27.37l-5.55-5.56c8.67-1 30.82.34 52.54 13.81a13.15 13.15 0 010 3.79l1.77 1c1.77 2.44 4.13 8.67 2.44 16.25s-5.22 10.7-6.56 11.46c-2.78 0-7.92 1.76-9.35 9-1.77 7.58-4.47 9-5.9 9l-32.17.33L28 74l-3.11-25.6 5.89-7.91 10.7-8.68 7.57-3.11zm38.07 10.69a28.58 28.58 0 01-3.12 2.45c-8.34-1.77-11-5.9-11-5.9 7.58 0 14.9 1.77 20 4.88a34.55 34.55 0 00-5.88-1.43z" fill-rule="evenodd" fill="url(#d)"/><path d="M86.82 77.14a44.26 44.26 0 01-19.37 4.46c-20 0-36.63-12.8-36.63-28.38 0-11.45 9-21.47 21.81-25.94-24.59 1.35-44 21.14-44 45C8.67 100 33.6 123.12 64 123.12c22.82 0 41.85-13.14 51.87-31.16-13.81 3.53-29.72-2.36-29.05-14.82z" fill-rule="evenodd" fill="url(#e)"/></svg>