<svg xmlns="http://www.w3.org/2000/svg" viewBox="0 0 300 300"><circle cx="150" cy="150" r="150" fill="#212d2e"/><path d="M81.3 180.8v-28.7a4.2 4.2 0 00-1.3-3.4l-6-6a4.2 4.2 0 01-1.1-2.6V82.3a9.3 9.3 0 019.5-9.5H140a4.5 4.5 0 012.7 1.2c2 1.8 4 3.8 5.8 5.8a4.7 4.7 0 003.8 1.6l55.8-.1c5.6 0 10.7 3.7 10.6 10.6-.2 18.8 0 37.5 0 56.2a3.7 3.7 0 001.2 3c2.1 2 4.2 4.1 6.2 6.3a4 4 0 011 2.4v57.9a9.3 9.3 0 01-9.6 9.5h-57.1a5 5 0 01-3-1.3c-2.1-1.8-4-3.8-5.9-5.7a4.6 4.6 0 00-3.6-1.6H91.4c-6.5 0-10.1-3.6-10.1-10zM184 150v-31.5c0-2.2-.2-2.4-2.4-2.4h-63c-2.2 0-2.4.2-2.4 2.4v63c0 2.2.2 2.4 2.4 2.4h63c2.2 0 2.4-.2 2.4-2.4z" fill="#fff"/></svg>