<svg xmlns="http://www.w3.org/2000/svg" viewBox="0 0 261.4 261.4"><path fill="#e2761b" stroke="#e2761b" stroke-linecap="round" stroke-linejoin="round" d="M245.5 6.9L146 80.8l18.4-43.6 81.1-30.3z"/><g fill="#e4761b" stroke="#e4761b" stroke-linecap="round" stroke-linejoin="round"><path d="M15.8 6.9l98.7 74.6L97 37.2 15.8 6.9zM209.7 178.2l-26.5 40.6 56.7 15.6 16.3-55.3-46.5-.9zM5.3 179.1l16.2 55.3 56.7-15.6-26.5-40.6-46.4.9z"/><path d="M75 109.6l-15.8 23.9 56.3 2.5-2-60.5L75 109.6zM186.3 109.6l-39-34.8L146 136l56.2-2.5-15.9-23.9zM78.2 218.8l33.8-16.5-29.2-22.8-4.6 39.3zM149.3 202.3l33.9 16.5-4.7-39.3-29.2 22.8z"/></g><g fill="#d7c1b3" stroke="#d7c1b3" stroke-linecap="round" stroke-linejoin="round"><path d="M183.2 218.8l-33.9-16.5 2.7 22.1-.3 9.3 31.5-14.9zM78.2 218.8l31.5 14.9-.2-9.3 2.5-22.1-33.8 16.5z"/></g><path fill="#233447" stroke="#233447" stroke-linecap="round" stroke-linejoin="round" d="M110.2 164.9L82 156.6l19.9-9.1 8.3 17.4zM151.1 164.9l8.3-17.4 20 9.1-28.3 8.3z"/><g fill="#cd6116" stroke="#cd6116" stroke-linecap="round" stroke-linejoin="round"><path d="M78.2 218.8l4.8-40.6-31.3.9 26.5 39.7zM178.4 178.2l4.8 40.6 26.5-39.7-31.3-.9zM202.2 133.5L146 136l5.2 28.9 8.3-17.4 20 9.1 22.7-23.1zM82 156.6l20-9.1 8.2 17.4 5.3-28.9-56.3-2.5L82 156.6z"/></g><g fill="#e4751f" stroke="#e4751f" stroke-linecap="round" stroke-linejoin="round"><path d="M59.2 133.5l23.6 46-.8-22.9-22.8-23.1zM179.5 156.6l-1 22.9 23.7-46-22.7 23.1zM115.5 136l-5.3 28.9 6.6 34.1 1.5-44.9-2.8-18.1zM146 136l-2.7 18 1.2 45 6.7-34.1L146 136z"/></g><path fill="#f6851b" stroke="#f6851b" stroke-linecap="round" stroke-linejoin="round" d="M151.2 164.9l-6.7 34.1 4.8 3.3 29.2-22.8 1-22.9-28.3 8.3zM82 156.6l.8 22.9 29.2 22.8 4.8-3.3-6.6-34.1-28.2-8.3z"/><path fill="#c0ad9e" stroke="#c0ad9e" stroke-linecap="round" stroke-linejoin="round" d="M151.7 233.7l.3-9.3-2.5-2.2h-37.7l-2.3 2.2.2 9.3-31.5-14.9 11 9 22.3 15.5h38.3l22.4-15.5 11-9-31.5 14.9z"/><path fill="#161616" stroke="#161616" stroke-linecap="round" stroke-linejoin="round" d="M149.3 202.3l-4.8-3.3h-27.7l-4.8 3.3-2.5 22.1 2.3-2.2h37.7l2.5 2.2-2.7-22.1z"/><g fill="#763d16" stroke="#763d16" stroke-linecap="round" stroke-linejoin="round"><path d="M249.7 85.6l8.5-40.8-12.7-37.9-96.2 71.4 37 31.3 52.3 15.3 11.6-13.5-5-3.6 8-7.3-6.2-4.8 8-6.1-5.3-4zM3.2 44.8l8.5 40.8-5.4 4 8 6.1-6.1 4.8 8 7.3-5 3.6 11.5 13.5L75 109.6l37-31.3L15.8 6.9 3.2 44.8z"/></g><path fill="#f6851b" stroke="#f6851b" stroke-linecap="round" stroke-linejoin="round" d="M238.6 124.9l-52.3-15.3 15.9 23.9-23.7 46 31.2-.4h46.5l-17.6-54.2zM75 109.6l-52.3 15.3-17.4 54.2h46.4l31.1.4-23.6-46L75 109.6zM146 136l3.3-57.7 15.2-41.1H97l15 41.1 3.5 57.7 1.2 18.2.1 44.8h27.7l.2-44.8L146 136z"/></svg>