<svg xmlns="http://www.w3.org/2000/svg" viewBox="0 0 300 235"><path d="M61.4 61.3a127.1 127.1 0 01177.2 0l5.8 5.7a6 6 0 010 8.7l-20 19.7a3.2 3.2 0 01-4.5 0l-8.1-8a88.7 88.7 0 00-123.6 0L79.5 96a3.2 3.2 0 01-4.4 0L55 76.2a6 6 0 010-8.6zM280.2 102l18 17.6a6 6 0 010 8.6l-80.9 79.1a6.4 6.4 0 01-8.8 0L151 151.2a1.6 1.6 0 00-2.2 0l-57.4 56.2a6.4 6.4 0 01-8.8 0L1.9 128.2a6 6 0 010-8.6L19.8 102a6.3 6.3 0 018.8 0L86 158.2a1.6 1.6 0 002.2 0l57.4-56.2a6.3 6.3 0 018.8 0l57.4 56.1a1.6 1.6 0 002.2 0l57.4-56.1a6.4 6.4 0 018.8 0z" fill="#3b99fc"/></svg>