<svg width="64" height="64" viewBox="0 0 64 64" fill="none" xmlns="http://www.w3.org/2000/svg">
<circle cx="32" cy="32" r="32" fill="url(#paint0_linear)" fill-opacity="0.05"/>
<path d="M57.0077 29.884C57.2297 25.2734 54.0095 22.2148 50.3753 20.1149L48.0131 33.9925C49.6485 33.9012 50.448 34.5221 50.7387 34.8142C51.1022 35.1794 52.0107 36.275 50.9205 38.0097C53.1918 37.6445 56.7395 35.4533 57.0077 29.884Z" fill="url(#paint1_linear)"/>
<path fill-rule="evenodd" clip-rule="evenodd" d="M26.021 13.7269L23.2045 10.8966C27.4444 10.3793 38.6316 11.0427 49.4614 17.8354C49.6431 18.5658 49.4614 19.6614 49.4614 19.6614L50.3699 20.1179C51.1573 21.244 52.4959 24.4455 51.551 28.2436C50.6061 32.0417 48.9768 33.6607 48.2803 33.9955C46.8266 33.9955 44.3554 34.8355 43.5559 38.5605C42.7563 42.2855 41.2239 43.0951 40.5577 43.0342L24.5673 43.2168L14.0282 37.0084L12.4837 24.1351L15.4819 20.1179L20.8423 15.7355L24.6582 14.1834L26.021 13.7269ZM44.9064 19.0447C44.2013 19.7792 43.542 20.1315 43.3537 20.2271C39.2364 19.3513 37.753 17.2212 37.753 17.2212C41.6367 17.1972 45.142 18.121 47.7066 19.6836C47.7066 19.6836 46.3183 19.2337 44.9064 19.0447Z" fill="url(#paint2_linear)"/>
<path fill-rule="evenodd" clip-rule="evenodd" d="M43.4152 38.5618C40.5927 39.9469 37.2463 40.7488 33.6582 40.7488C23.5725 40.7488 15.3965 34.413 15.3965 26.5974C15.3965 20.8239 19.8579 15.858 26.255 13.657C14.0888 14.3579 4.31226 24.1315 4.31226 36.1911C4.31226 50.1092 16.7187 61.6093 32.0228 61.6093C43.4508 61.6093 52.9634 54.9835 57.9373 46.1187C51.0934 47.6579 42.9918 44.7317 43.4152 38.5618Z" fill="url(#paint3_linear)"/>
<defs>
<linearGradient id="paint0_linear" x1="32" y1="22.3944" x2="32" y2="64.8414" gradientUnits="userSpaceOnUse">
<stop stop-color="#01E8F8"/>
<stop offset="1" stop-color="#01E8F8" stop-opacity="0"/>
</linearGradient>
<linearGradient id="paint1_linear" x1="52.5543" y1="24.1107" x2="53.9792" y2="41.0819" gradientUnits="userSpaceOnUse">
<stop stop-color="#01E8F7"/>
<stop offset="1" stop-color="#00C2FF"/>
</linearGradient>
<linearGradient id="paint2_linear" x1="25.2294" y1="14.2402" x2="41.7144" y2="40.4038" gradientUnits="userSpaceOnUse">
<stop stop-color="#01E8F7"/>
<stop offset="1" stop-color="#00B3EC"/>
</linearGradient>
<linearGradient id="paint3_linear" x1="31.3542" y1="27.2199" x2="32.826" y2="69.4321" gradientUnits="userSpaceOnUse">
<stop stop-color="#01E8F7"/>
<stop offset="1" stop-color="#00C2FF"/>
</linearGradient>
</defs>
</svg>
