<svg width="55" height="55" fill="none" xmlns="http://www.w3.org/2000/svg"><ellipse cx="27.053" cy="27.076" rx="27.053" ry="27.076" fill="#fff"/><path d="M48.194 25.284c.188-3.9-2.535-6.489-5.607-8.265L40.59 28.76c1.383-.078 2.058.448 2.304.695.308.309 1.076 1.236.154 2.704 1.92-.31 4.92-2.163 5.146-6.876z" fill="url(#paint0_linear)"/><path fill-rule="evenodd" clip-rule="evenodd" d="M21.998 11.614l-2.38-2.395c3.583-.438 13.041.123 22.197 5.87.153.619 0 1.546 0 1.546l.768.386c.665.953 1.797 3.662.998 6.875-.799 3.214-2.176 4.584-2.765 4.867-1.229 0-3.318.71-3.994 3.863-.676 3.152-1.971 3.837-2.535 3.785l-13.518.154-8.91-5.252-1.305-10.893 2.534-3.399 4.532-3.708L20.846 12l1.152-.386zm15.966 4.5a5.021 5.021 0 01-1.313 1c-3.48-.742-4.735-2.544-4.735-2.544 3.284-.02 6.247.761 8.415 2.084 0 0-1.174-.38-2.367-.54z" fill="url(#paint1_linear)"/><path fill-rule="evenodd" clip-rule="evenodd" d="M36.807 32.627c-2.393 1.172-5.231 1.85-8.274 1.85-8.553 0-15.487-5.36-15.487-11.974 0-4.885 3.784-9.087 9.21-10.95-10.319.593-18.61 8.863-18.61 19.067 0 11.777 10.521 21.507 23.5 21.507 9.692 0 17.759-5.606 21.977-13.107-5.804 1.303-12.674-1.173-12.316-6.393z" fill="url(#paint2_linear)"/><defs><linearGradient id="paint0_linear" x1="44.429" y1="21.301" x2="45.458" y2="34.566" gradientUnits="userSpaceOnUse"><stop stop-color="#01E8F7"/><stop offset="1" stop-color="#00C2FF"/></linearGradient><linearGradient id="paint1_linear" x1="21.329" y1="12.048" x2="35.282" y2="34.175" gradientUnits="userSpaceOnUse"><stop stop-color="#01E8F7"/><stop offset="1" stop-color="#00B3EC"/></linearGradient><linearGradient id="paint2_linear" x1="26.579" y1="23.03" x2="27.821" y2="58.746" gradientUnits="userSpaceOnUse"><stop stop-color="#01E8F7"/><stop offset="1" stop-color="#00C2FF"/></linearGradient></defs></svg>