<svg width="55" height="55" viewBox="0 0 55 55" fill="none" xmlns="http://www.w3.org/2000/svg">
<ellipse cx="27.0528" cy="27.0767" rx="27.0528" ry="27.0758" fill="url(#paint0_linear)"/>
<path d="M48.1941 25.2853C48.3818 21.3842 45.6594 18.7962 42.5871 17.0195L40.5901 28.7615C41.9726 28.6843 42.6485 29.2096 42.8943 29.4568C43.2016 29.7658 43.9696 30.6928 43.0479 32.1606C44.9681 31.8516 47.9674 29.9975 48.1941 25.2853Z" fill="#9BF9FF"/>
<path fill-rule="evenodd" clip-rule="evenodd" d="M21.9981 11.6146L19.6171 9.21981C23.2014 8.78206 32.6591 9.34341 41.8146 15.0908C41.9682 15.7089 41.8146 16.6359 41.8146 16.6359L42.5827 17.0221C43.2484 17.9749 44.38 20.6838 43.5812 23.8974C42.7824 27.111 41.405 28.4809 40.8161 28.7642C39.5872 28.7642 37.498 29.4749 36.8221 32.6267C36.1462 35.7785 34.8507 36.4635 34.2874 36.412L20.7692 36.5665L11.8594 31.3134L10.5537 20.4211L13.0884 17.0221L17.6201 13.3141L20.846 12.0008L21.9981 11.6146ZM37.9638 16.1141C37.3677 16.7356 36.8103 17.0337 36.6512 17.1146C33.1704 16.3735 31.9164 14.5712 31.9164 14.5712C35.1996 14.5509 38.163 15.3325 40.3311 16.6547C40.3311 16.6547 39.1575 16.2741 37.9638 16.1141Z" fill="url(#paint1_linear)"/>
<path fill-rule="evenodd" clip-rule="evenodd" d="M36.8075 32.6277C34.4138 33.7997 31.5758 34.4782 28.5329 34.4782C19.9796 34.4782 13.0458 29.1173 13.0458 22.5043C13.0458 17.619 16.83 13.4169 22.2558 11.5549C11.9375 12.1472 3.64551 20.4171 3.64551 30.6214C3.64551 42.3977 14.167 52.1282 27.146 52.1282C36.8377 52.1282 44.905 46.522 49.1233 39.0214C43.3193 40.3236 36.4488 37.8479 36.8075 32.6277Z" fill="#A0F9FF"/>
<defs>
<linearGradient id="paint0_linear" x1="17.5062" y1="5.80856" x2="46.9374" y2="44.2636" gradientUnits="userSpaceOnUse">
<stop stop-color="#00EFFF"/>
<stop offset="1" stop-color="#00B3EC"/>
</linearGradient>
<linearGradient id="paint1_linear" x1="13.7136" y1="7.03759" x2="51.7577" y2="47.9389" gradientUnits="userSpaceOnUse">
<stop stop-color="#FDFFFF"/>
<stop offset="1" stop-color="#FDFFFF"/>
</linearGradient>
</defs>
</svg>
