<svg width="55" height="55" fill="none" xmlns="http://www.w3.org/2000/svg"><ellipse cx="27.053" cy="27.076" rx="27.053" ry="27.076" fill="#2775CA"/><path d="M34.112 30.83c0-3.776-2.195-5.07-6.583-5.61-3.134-.432-3.76-1.294-3.76-2.805 0-1.51 1.044-2.481 3.134-2.481 1.88 0 2.925.647 3.447 2.265.105.324.418.54.732.54h1.671c.418 0 .732-.324.732-.756v-.107c-.418-2.374-2.299-4.208-4.702-4.424v-2.589c0-.431-.313-.755-.836-.863H26.38c-.418 0-.731.324-.836.863v2.482c-3.134.431-5.119 2.589-5.119 5.286 0 3.56 2.09 4.962 6.478 5.502 2.925.54 3.865 1.187 3.865 2.913 0 1.726-1.463 2.913-3.447 2.913-2.717 0-3.657-1.187-3.97-2.806-.105-.43-.418-.647-.732-.647h-1.776c-.418 0-.731.324-.731.755v.108c.417 2.697 2.09 4.64 5.537 5.179v2.589c0 .431.313.755.836.863h1.567c.418 0 .731-.324.836-.863v-2.59c3.134-.539 5.224-2.804 5.224-5.717z" fill="#fff"/><path d="M21.743 41.566c-8.211-2.913-12.422-11.965-9.37-19.977 1.58-4.37 5.054-7.699 9.37-9.26.421-.208.631-.52.631-1.04V9.832c0-.416-.21-.728-.631-.832-.106 0-.316 0-.421.104-10 3.121-15.475 13.63-12.317 23.514 1.895 5.827 6.422 10.301 12.317 12.174.42.208.842 0 .947-.416.105-.104.105-.208.105-.416v-1.457c0-.312-.315-.728-.631-.937zM32.902 9.104c-.422-.208-.843 0-.948.416-.105.104-.105.208-.105.416v1.457c0 .416.315.832.631 1.04 8.211 2.914 12.422 11.966 9.37 19.977-1.58 4.37-5.054 7.7-9.37 9.26-.42.209-.631.52-.631 1.041v1.457c0 .416.21.728.631.832.106 0 .316 0 .422-.104 10-3.121 15.474-13.63 12.316-23.515-1.895-5.93-6.527-10.404-12.317-12.277z" fill="#fff"/></svg>