<svg width="120" height="33" fill="none" xmlns="http://www.w3.org/2000/svg"><path fill-rule="evenodd" clip-rule="evenodd" d="M63.203 11.448c-.79-.786-2.004-1.25-3.551-1.25h-5.486v12.51h2.162v-3.853h-.002v-2.789h.002V12.2h3.148c1.598 0 2.527.698 2.549 2.025v.084l-.001.087c-.044 1.236-1.019 2.004-2.53 2.004h-.931l-1.114 1.947h1.587l3.025 4.362h2.567l-3.324-4.736.111-.034c1.629-.515 2.783-1.718 2.808-3.689v-.102c0-1.09-.369-2.002-1.02-2.699zm28.179.42c-1.264-1.072-2.597-1.67-4.72-1.67-3.68 0-6.28 2.856-6.335 6.253l-.001.147c0 3.587 2.527 6.33 6.37 6.33 2.176 0 3.896-.88 5.125-1.917v-5.169l-2.089 1.899v2.286c-.754.562-1.79.931-2.966.931-2.472 0-4.127-1.809-4.175-4.284l-.001-.146c0-2.356 1.737-4.325 3.983-4.325 1.545 0 2.493.492 3.44 1.3l1.369-1.635zm15.583 4.66c0-3.464-2.632-6.33-6.405-6.33-3.733 0-6.383 2.857-6.44 6.254l-.001.146c0 3.464 2.632 6.33 6.406 6.33 3.732 0 6.383-2.857 6.439-6.254l.001-.146zm-55.404 6.189L46.156 10.32h-2L38.75 22.717h2.158l4.212-9.811 4.244 9.81h2.197zm27.84 0L73.998 10.32h-2.001l-5.405 12.396h2.158l4.212-9.811 4.243 9.81h2.198zm38.475-3.798l-6.581-8.51h-2v12.308h2.123V13.96l6.774 8.756H120V10.409h-2.124v8.51zm-21.493-2.391c0-2.391 1.702-4.325 4.142-4.325 2.42 0 4.126 1.911 4.175 4.255l.001.14c0 2.391-1.702 4.325-4.141 4.325-2.421 0-4.126-1.911-4.176-4.255l-.001-.14z" fill="url(#paint0_linear)"/><circle cx="16.316" cy="16.316" fill="url(#paint1_linear)" fill-opacity=".05" r="16.316"/><path d="M29.066 15.236c.113-2.35-1.529-3.91-3.382-4.981L24.48 17.33c.834-.047 1.241.27 1.39.419.185.186.648.744.092 1.629 1.159-.186 2.967-1.303 3.104-4.143z" fill="url(#paint2_linear)"/><path fill-rule="evenodd" clip-rule="evenodd" d="M13.268 6.999L11.83 5.555c2.162-.263 7.866.075 13.388 3.538.093.373 0 .931 0 .931l.463.233c.402.574 1.084 2.207.603 4.143-.482 1.937-1.313 2.762-1.668 2.933-.741 0-2.001.428-2.409 2.328-.408 1.899-1.189 2.311-1.529 2.28l-8.153.094-5.373-3.166-.788-6.564 1.529-2.048 2.733-2.234 1.946-.792.694-.232zm9.629 2.71c-.36.375-.696.554-.792.603-2.1-.446-2.855-1.532-2.855-1.532 1.98-.013 3.767.458 5.075 1.255 0 0-.708-.23-1.428-.326z" fill="url(#paint3_linear)"/><path fill-rule="evenodd" clip-rule="evenodd" d="M22.135 19.662c-1.439.706-3.145 1.115-4.975 1.115-5.142 0-9.31-3.23-9.31-7.216 0-2.944 2.275-5.477 5.538-6.599-6.204.356-11.19 5.34-11.19 11.49 0 7.096 6.325 12.96 14.129 12.96 5.826 0 10.677-3.378 13.213-7.898-3.49.785-7.62-.707-7.405-3.852z" fill="url(#paint4_linear)"/><defs><linearGradient id="paint0_linear" x1="16.479" y1="5.48" x2="32.283" y2="53.879" gradientUnits="userSpaceOnUse"><stop stop-color="#01E8F7"/><stop offset="1" stop-color="#00B3EC"/></linearGradient><linearGradient id="paint1_linear" x1="16.316" y1="11.418" x2="16.316" y2="33.061" gradientUnits="userSpaceOnUse"><stop stop-color="#01E8F8"/><stop offset="1" stop-color="#01E8F8" stop-opacity="0"/></linearGradient><linearGradient id="paint2_linear" x1="26.795" y1="12.292" x2="27.522" y2="20.945" gradientUnits="userSpaceOnUse"><stop stop-color="#01E8F7"/><stop offset="1" stop-color="#00C2FF"/></linearGradient><linearGradient id="paint3_linear" x1="12.864" y1="7.26" x2="21.269" y2="20.6" gradientUnits="userSpaceOnUse"><stop stop-color="#01E8F7"/><stop offset="1" stop-color="#00B3EC"/></linearGradient><linearGradient id="paint4_linear" x1="15.986" y1="13.878" x2="16.736" y2="35.401" gradientUnits="userSpaceOnUse"><stop stop-color="#01E8F7"/><stop offset="1" stop-color="#00C2FF"/></linearGradient></defs></svg>