<svg fill="none" xmlns="http://www.w3.org/2000/svg" viewBox="0 0 111 111"><g clip-path="url(#clip0)"><circle cx="55.6" cy="55.6" fill="url(#paint0_linear)" r="55.6"/><g filter="url(#filter0_d)"><path d="M99 50.1c.4-8-5.2-13.3-11.5-17l-4.1 24.1c2.8-.1 4.2 1 4.7 1.5.6.6 2.2 2.5.3 5.5 4-.6 10.1-4.4 10.6-14.1z" fill="#A0F9FF"/><path fill-rule="evenodd" clip-rule="evenodd" d="M45.2 22l-4.9-4.9a77 77 0 0145.6 12c.3 1.3 0 3.2 0 3.2l1.6.8c1.3 2 3.7 7.5 2 14.1-1.6 6.6-4.4 9.5-5.7 10-2.5 0-6.8 1.5-8.2 8-1.3 6.4-4 7.9-5.2 7.7l-27.7.4-18.3-10.8L21.7 40l5.2-7 9.3-7.6 6.6-2.7 2.4-.8zm31.4 6.2a10.1 10.1 0 01-2.6 1.9c-7-1.4-9.6-4.7-9.6-4.7a35 35 0 0117 3.8s-2.4-.7-4.8-1z" fill="url(#paint1_linear)"/><path fill-rule="evenodd" clip-rule="evenodd" d="M75.6 65.3a39 39 0 01-17 3.8c-17.7 0-32-11-32-24.6 0-10 7.9-18.7 19-22.5A40 40 0 007.3 61.2c0 24.1 21.7 44.1 48.4 44.1 20 0 36.6-11.5 45.3-26.9-12 2.7-26.1-2.4-25.4-13.1z" fill="#9BF9FF"/></g></g><defs><linearGradient id="paint0_linear" x1="36" y1="11.9" x2="96.5" y2="91" gradientUnits="userSpaceOnUse"><stop stop-color="#00EFFF"/><stop offset="1" stop-color="#00B3EC"/></linearGradient><linearGradient id="paint1_linear" x1="28.2" y1="12.6" x2="106.3" y2="96.6" gradientUnits="userSpaceOnUse"><stop stop-color="#FDFFFF"/><stop offset="1" stop-color="#FDFFFF"/></linearGradient><clipPath id="clip0"><path fill="#fff" d="M0 0h111v111H0z"/></clipPath><filter id="filter0_d" x="-8.5" y="6.7" width="125.2" height="120" filterUnits="userSpaceOnUse" color-interpolation-filters="sRGB"><feFlood flood-opacity="0" result="BackgroundImageFix"/><feColorMatrix in="SourceAlpha" values="0 0 0 0 0 0 0 0 0 0 0 0 0 0 0 0 0 0 127 0"/><feOffset dy="5.6"/><feGaussianBlur stdDeviation="7.9"/><feColorMatrix values="0 0 0 0 0.0154514 0 0 0 0 0.579264 0 0 0 0 0.741667 0 0 0 0.5 0"/><feBlend in2="BackgroundImageFix" result="effect1_dropShadow"/><feBlend in="SourceGraphic" in2="effect1_dropShadow" result="shape"/></filter></defs></svg>