<svg xmlns="http://www.w3.org/2000/svg" xmlns:xlink="http://www.w3.org/1999/xlink" width="25" height="25"><defs><linearGradient id="a" x1="-266.68" y1="103.75" x2="-266.2" y2="97.62" gradientTransform="matrix(1 0 0 -1 287 113.6)" gradientUnits="userSpaceOnUse"><stop offset="0" stop-color="#01e8f7"/><stop offset="1" stop-color="#00c2ff"/></linearGradient><linearGradient id="b" x1="-277.65" y1="107.72" x2="-271.21" y2="97.5" gradientTransform="matrix(1 0 0 -1 287 113.6)" gradientUnits="userSpaceOnUse"><stop offset="0" stop-color="#01e8f7"/><stop offset="1" stop-color="#00b3ec"/></linearGradient><linearGradient id="c" x1="-275" y1="102.95" x2="-274.42" y2="86.46" xlink:href="#a"/></defs><circle cx="12.5" cy="12.5" r="12.5" fill="#01e8f8" fill-opacity=".15"/><path d="M22.27 11.67c.09-1.8-1.17-3-2.59-3.81l-.92 5.42a1.32 1.32 0 011.06.32.92.92 0 01.07 1.25 3.1 3.1 0 002.38-3.18z" fill="url(#a)"/><path d="M10.16 5.36l-1.1-1.1A17.24 17.24 0 0119.32 7a2.21 2.21 0 010 .71l.36.18a4.18 4.18 0 01.46 3.11 3.47 3.47 0 01-1.28 2.25c-.57 0-1.53.33-1.85 1.78s-.91 1.77-1.17 1.75l-6.24.07-4.12-2.39-.6-5 1.17-1.6 2.09-1.71 1.49-.61zm7.38 2.08a2.1 2.1 0 01-.61.46 3.59 3.59 0 01-2.18-1.17 7.52 7.52 0 013.89 1 6.86 6.86 0 00-1.1-.29z" fill-rule="evenodd" fill="url(#b)"/><path d="M17 15.06a8.76 8.76 0 01-3.82.86c-4 0-7.16-2.48-7.16-5.53 0-2.26 1.75-4.2 4.26-5.06a9 9 0 00-8.61 8.81c0 5.43 4.87 9.93 10.87 9.93A11.7 11.7 0 0022.7 18c-2.7.62-5.85-.53-5.7-2.94z" fill-rule="evenodd" fill="url(#c)"/></svg>