<svg fill="none" xmlns="http://www.w3.org/2000/svg" viewBox="0 0 89 89"><circle cx="44.6475" cy="44.9941" r="44" fill="url(#paint0_linear)"/><g style="mix-blend-mode:multiply"><path d="M77.5887 40.3528c.2901-6.0249-3.9179-10.0218-8.6669-12.7659L65.835 45.7216c2.137-.1193 3.1818.692 3.5617 1.0738.4749.4772 1.6622 1.9089.2375 4.1758 2.9681-.4773 7.6041-3.3407 7.9545-10.6184z" fill="url(#paint1_linear)"/></g><path fill-rule="evenodd" clip-rule="evenodd" d="M37.0972 19.2395l-3.6804-3.6986c5.5405-.676 20.1595.1909 34.3115 9.0674.2374.9545 0 2.3861 0 2.3861l1.1872.5966c1.029 1.4714 2.7782 5.6551 1.5435 10.6183-1.2348 4.9632-3.3639 7.0789-4.2741 7.5164-1.8996 0-5.129 1.0976-6.1737 5.9654-1.0448 4.8677-3.0473 5.9256-3.918 5.846l-20.8956.2386-13.772-8.1129-2.0184-16.8223 3.918-5.2495 7.0047-5.7268 4.9865-2.0282 1.7808-.5965zm24.6789 6.949c-.9214.9598-1.783 1.4203-2.029 1.5451-5.3804-1.1445-7.3188-3.928-7.3188-3.928 5.0751-.0313 9.6557 1.1758 13.007 3.2178 0 0-1.8141-.5879-3.6592-.8349z" fill="url(#paint2_linear)"/><path fill-rule="evenodd" clip-rule="evenodd" d="M59.8268 51.6932c-3.6883 1.81-8.0611 2.8578-12.7497 2.8578-13.1796 0-23.8637-8.2795-23.8637-18.4927 0-7.5446 5.8303-14.034 14.19-16.9101-15.8987.9154-28.6749 13.6873-28.6749 29.4467 0 18.1877 16.2123 33.2156 36.2111 33.2156 14.9337 0 27.3644-8.6583 33.8642-20.2425-8.9433 2.0113-19.53-1.8124-18.977-9.8748z" fill="url(#paint3_linear)"/><defs><linearGradient id="paint0_linear" x1="88.6475" y1=".9941" x2="24.7058" y2="-13.3796" gradientUnits="userSpaceOnUse"><stop stop-color="#01E8F7"/><stop offset="1" stop-color="#00C2FF"/></linearGradient><linearGradient id="paint1_linear" x1="71.7693" y1="34.2009" x2="73.3566" y2="54.688" gradientUnits="userSpaceOnUse"><stop stop-color="#50BFFF"/><stop offset="1" stop-color="#00C3F4"/></linearGradient><linearGradient id="paint2_linear" x1="126.167" y1="28.1288" x2="-53.2399" y2="-162.7" gradientUnits="userSpaceOnUse"><stop stop-color="#B1FAFF"/><stop offset="1" stop-color="#B5EDFF"/></linearGradient><linearGradient id="paint3_linear" x1="44.0659" y1="36.8716" x2="45.9892" y2="92.033" gradientUnits="userSpaceOnUse"><stop stop-color="#50BFFF"/><stop offset="1" stop-color="#00C3F4"/></linearGradient></defs></svg>