<svg xmlns="http://www.w3.org/2000/svg" width="285.7" height="285.7" viewBox="0 0 285.7 285.7">
  <circle cx="142.85" cy="142.85" r="142.85" fill="#fff"/>
  <g>
    <path d="M112.06,68.89c-2.21-.34-2.3-.38-1.27-.54a34.54,34.54,0,0,1,9.94.88c7.56,1.79,14.45,6.37,21.79,14.5l1.95,2.16,2.8-.45A59.2,59.2,0,0,1,181,89.65c2.75,1.26,7.09,3.78,7.64,4.43a11.57,11.57,0,0,1,.7,3c.74,4.9.37,8.65-1.13,11.45-.83,1.53-.87,2-.32,3.32a3.23,3.23,0,0,0,2.88,1.81c2.49,0,5.17-4,6.41-9.56l.49-2.21,1,1.1c5.35,6,9.56,14.25,10.28,20.11l.19,1.52-.9-1.38a17.2,17.2,0,0,0-5.1-5.33c-3.59-2.36-7.39-3.16-17.45-3.69-9.09-.48-14.23-1.25-19.33-2.9-8.67-2.81-13-6.56-23.35-20a99,99,0,0,0-10.22-11.94C126.38,73.3,120.1,70.13,112.06,68.89Z" fill="#ff007a"/>
    <path d="M190.7,82.22a24,24,0,0,1,1.87-9,9.78,9.78,0,0,1,.9-1.73,6.25,6.25,0,0,1-.42,1.56,20.41,20.41,0,0,0-.38,9.26c.7,4.72,1.1,5.4,6.12,10.5,2.35,2.39,5.09,5.41,6.08,6.71l1.81,2.35-1.81-1.68a77,77,0,0,0-8.4-6.65c-.76-.38-.87-.38-1.33.08s-.52,1.06-.58,4.06c-.09,4.69-.73,7.69-2.28,10.7-.84,1.62-1,1.27-.21-.56.56-1.37.62-2,.62-6.5,0-9.11-1.1-11.3-7.48-15-1.62-1-4.28-2.32-5.92-3a22.61,22.61,0,0,1-2.89-1.41c.18-.18,6.4,1.63,8.91,2.59,3.72,1.42,4.34,1.6,4.79,1.43S190.55,84.8,190.7,82.22Z" fill="#ff007a"/>
    <path d="M116.35,97.8c-4.49-6.14-7.26-15.54-6.66-22.57l.19-2.18,1,.19a25.88,25.88,0,0,1,6.76,2.5c4.25,2.56,6.09,5.94,8,14.6.54,2.54,1.26,5.41,1.59,6.38a44,44,0,0,0,4.18,7.6c1.18,1.71.4,2.52-2.21,2.28C125.21,106.25,119.82,102.55,116.35,97.8Z" fill="#ff007a"/>
    <path d="M185.26,143.45c-20.95-8.38-28.33-15.66-28.33-27.94a19,19,0,0,1,.14-3.28,14.68,14.68,0,0,1,1.8,1.32c4.25,3.39,9,4.83,22.17,6.74,7.75,1.13,12.12,2,16.14,3.36,12.78,4.21,20.69,12.77,22.58,24.42a40,40,0,0,1-.66,13.08c-.7,2.64-2.84,7.4-3.41,7.59-.16,0-.31-.55-.35-1.37a16.83,16.83,0,0,0-6.18-11.82C204.92,151.92,199.21,149,185.26,143.45Z" fill="#ff007a"/>
    <path d="M170.55,146.93a37,37,0,0,0-1-4.4l-.53-1.59,1,1.11a17.7,17.7,0,0,1,3.38,6.11c.7,2,.78,2.58.77,5.82s-.09,3.85-.74,5.65a17.83,17.83,0,0,1-4.42,7c-3.83,3.87-8.75,6-15.85,6.9-1.23.15-4.83.41-8,.58-8,.41-13.21,1.26-17.93,2.91a3.58,3.58,0,0,1-1.34.31c-.19-.18,3-2.09,5.67-3.35,3.74-1.79,7.46-2.77,15.79-4.15,4.12-.68,8.37-1.51,9.45-1.84C167,164.88,172.23,156.86,170.55,146.93Z" fill="#ff007a"/>
    <path d="M180.15,163.88c-2.78-5.94-3.42-11.69-1.89-17,.16-.57.42-1,.58-1a5.68,5.68,0,0,1,1.46.78c1.28.86,3.86,2.31,10.71,6,8.55,4.63,13.43,8.22,16.74,12.32a26.71,26.71,0,0,1,5.57,12.67,42.79,42.79,0,0,1-.53,12.46c-2.3,9-7.64,16-15.26,20.13a22,22,0,0,1-2.23,1.1,8.23,8.23,0,0,1,.9-2.29,20.42,20.42,0,0,0,.92-16.28c-1.19-3.53-3.61-7.84-8.49-15.12C182.94,169.12,181.55,166.87,180.15,163.88Z" fill="#ff007a"/>
    <path d="M101.47,196c7.77-6.53,17.44-11.16,26.26-12.58a41.16,41.16,0,0,1,13.64.52c5.63,1.44,10.67,4.65,13.3,8.47s3.66,7,4.8,14.25c.45,2.86.94,5.73,1.09,6.38.86,3.76,2.54,6.76,4.61,8.27,3.29,2.4,9,2.54,14.54.38a6.94,6.94,0,0,1,1.82-.56c.21.2-2.6,2.07-4.58,3.05a15.73,15.73,0,0,1-7.61,1.83c-5.1,0-9.34-2.58-12.88-7.84a62.33,62.33,0,0,1-3.48-6.9c-3.74-8.47-5.58-11.05-9.92-13.88a12.89,12.89,0,0,0-12.31-1.11,7.9,7.9,0,0,0-2.7,12.33,10.7,10.7,0,0,0,6,3.13,6.41,6.41,0,0,0,7.26-6.4c0-2.54-1-4-3.46-5.11-3.39-1.51-7,.26-7,3.42a2.85,2.85,0,0,0,2,2.81c.87.39.89.42.18.27-3.1-.64-3.83-4.36-1.33-6.83,3-3,9.19-1.66,11.32,2.39a10.35,10.35,0,0,1,.22,7.13c-1.74,4.58-6.83,7-12,5.68-3.52-.9-5-1.86-9.19-6.2-7.36-7.54-10.22-9-20.83-10.64l-2-.32Z" fill="#ff007a"/>
    <path d="M66.92,61.06c24.59,29.66,41.52,41.89,43.41,44.48,1.55,2.13,1,4-1.7,5.56a16.31,16.31,0,0,1-6,1.68,3.15,3.15,0,0,1-2.32-.66c-1-.94-1.56-.78-6.69-9.83C86.45,91.3,80.49,82.19,80.33,82c-.38-.35-.37-.34,12.52,22.59,2.08,4.78.41,6.53.41,7.21,0,1.39-.38,2.12-2.09,4C88.3,119,87,122.6,86.1,130c-1,8.28-3.95,14.13-12,24.14-4.73,5.86-5.5,6.94-6.69,9.3a17,17,0,0,0-2.09,8.39,26.17,26.17,0,0,0,1.39,10.34c1.07,3.32,2.19,5.51,5,9.9,2.46,3.79,3.88,6.61,3.88,7.71,0,.87.16.88,4,0,9.12-2.05,16.53-5.65,20.7-10.07,2.58-2.73,3.18-4.24,3.2-8,0-2.45-.07-3-.74-4.37-1.08-2.29-3-4.2-7.4-7.16-5.7-3.87-8.14-7-8.81-11.28-.55-3.52.09-6,3.24-12.57,3.26-6.8,4.07-9.69,4.62-16.55.35-4.43.84-6.17,2.12-7.57s2.54-2,5.84-2.41c5.39-.73,8.82-2.12,11.64-4.7a10.05,10.05,0,0,0,3.63-7.65l.11-2.46-1.36-1.58c-5-5.74-52.76-46.88-53.07-46.88C63.24,56.55,64.87,58.58,66.92,61.06ZM78.37,176.31A4.34,4.34,0,0,0,77,170.57c-1.77-1.17-4.52-.62-4.52.9,0,.47.26.81.84,1.1,1,.51,1.05,1.07.28,2.22s-.72,2.2.18,2.9C75.26,178.81,77.3,178.19,78.37,176.31Z" fill="#ff007a" fill-rule="evenodd"/>
    <path d="M121.13,121.11a9.45,9.45,0,0,0-5.74,6.23c-.47,1.7-.2,4.69.49,5.62,1.12,1.49,2.21,1.88,5.15,1.86,5.76,0,10.77-2.49,11.35-5.56.47-2.52-1.72-6-4.75-7.54A11.44,11.44,0,0,0,121.13,121.11Zm6.74,5.23c.88-1.25.49-2.61-1-3.52-2.87-1.75-7.22-.3-7.22,2.4,0,1.34,2.27,2.81,4.35,2.81A5.63,5.63,0,0,0,127.87,126.34Z" fill="#ff007a" fill-rule="evenodd"/>
  </g>
</svg>
