<svg fill="none" xmlns="http://www.w3.org/2000/svg" viewBox="0 0 111 111"><g clip-path="url(#clip0)"><circle cx="55.6" cy="55.6" fill="url(#paint0_linear)" r="55.6"/><path d="M99 52c.4-8-5.2-13.4-11.5-17l-4 24.1c2.8-.2 4.1 1 4.6 1.4.7.7 2.3 2.6.4 5.6 4-.6 10-4.5 10.5-14.1z" fill="url(#paint1_linear)"/><path fill-rule="evenodd" clip-rule="evenodd" d="M45.2 23.9l-4.9-5c7.4-.9 26.8.3 45.6 12.1.3 1.3 0 3.2 0 3.2l1.6.8c1.4 2 3.7 7.5 2 14.1-1.6 6.6-4.4 9.4-5.6 10-2.6 0-6.8 1.5-8.2 8-1.4 6.4-4 7.8-5.2 7.7l-27.8.3-18.3-10.8L21.7 42l5.2-7 9.3-7.6 6.6-2.7 2.4-.8zM78 33a10.3 10.3 0 01-2.7 2c-7.1-1.5-9.7-5.2-9.7-5.2 6.7 0 12.8 1.6 17.3 4.3 0 0-2.4-.8-4.9-1z" fill="url(#paint2_linear)"/><path fill-rule="evenodd" clip-rule="evenodd" d="M75.6 67c-4.9 2.5-10.7 3.8-17 3.8-17.5 0-31.8-11-31.8-24.6 0-10 7.8-18.6 19-22.5A40 40 0 007.4 63c0 24.2 21.6 44.2 48.3 44.2a52 52 0 0045.1-27C89 83 75 77.9 75.6 67.2z" fill="url(#paint3_linear)"/></g><defs><linearGradient id="paint0_linear" x1="55.6" y1="8.7" x2="55.6" y2="111.3" gradientUnits="userSpaceOnUse"><stop stop-color="#EBFEFF"/><stop offset="1" stop-color="#EBFEFF" stop-opacity="0"/></linearGradient><linearGradient id="paint1_linear" x1="91.3" y1="43.8" x2="93.4" y2="71" gradientUnits="userSpaceOnUse"><stop stop-color="#01E8F7"/><stop offset="1" stop-color="#00C2FF"/></linearGradient><linearGradient id="paint2_linear" x1="43.8" y1="24.8" x2="72.5" y2="70.2" gradientUnits="userSpaceOnUse"><stop stop-color="#01E8F7"/><stop offset="1" stop-color="#00B3EC"/></linearGradient><linearGradient id="paint3_linear" x1="54.6" y1="47.3" x2="57.2" y2="120.7" gradientUnits="userSpaceOnUse"><stop stop-color="#01E8F7"/><stop offset="1" stop-color="#00C2FF"/></linearGradient><clipPath id="clip0"><path fill="#fff" d="M0 0h111v111H0z"/></clipPath></defs></svg>